<?xml version="1.0" standalone="no"?>
<!DOCTYPE svg PUBLIC "-//W3C//DTD SVG 20010904//EN"
 "http://www.w3.org/TR/2001/REC-SVG-20010904/DTD/svg10.dtd">
<svg version="1.0" xmlns="http://www.w3.org/2000/svg"
 width="300.000000pt" height="300.000000pt" viewBox="0 0 300.000000 300.000000"
 preserveAspectRatio="xMidYMid meet">
<metadata>
Created by potrace 1.14, written by Peter Selinger 2001-2017
</metadata>
<g transform="translate(0.000000,300.000000) scale(0.100000,-0.100000)"
fill="#000000" stroke="none">
<path d="M1349 2869 c-537 -57 -1001 -430 -1167 -939 -50 -152 -66 -257 -67
-425 0 -289 73 -533 234 -775 65 -98 236 -275 331 -342 185 -131 388 -214 605
-248 103 -17 327 -14 436 5 565 97 1026 556 1124 1119 19 114 20 356 0 468
-93 537 -499 972 -1027 1102 -170 42 -309 52 -469 35z m381 -45 c460 -80 866
-422 1024 -864 58 -161 93 -387 81 -530 -29 -353 -160 -645 -395 -880 -256
-256 -582 -391 -945 -392 -373 -1 -692 130 -956 392 -197 196 -312 409 -375
695 -24 112 -24 398 0 510 59 268 171 483 348 671 225 238 531 384 873 418 66
7 255 -4 345 -20z"/>
<path d="M1327 2723 c-4 -3 -7 -15 -7 -26 0 -20 0 -20 -23 1 -35 33 -51 16
-42 -47 6 -42 10 -51 27 -51 16 0 19 5 15 26 l-4 25 23 -22 c14 -13 29 -19 40
-15 13 5 15 14 9 54 -9 61 -19 75 -38 55z"/>
<path d="M1400 2676 l0 -56 51 0 c56 0 65 20 13 31 -28 6 -26 10 5 13 28 2 23
26 -6 27 l-28 1 30 7 c46 10 36 26 -17 29 l-48 3 0 -55z"/>
<path d="M1527 2723 c-4 -3 -7 -28 -7 -55 0 -48 0 -48 35 -49 19 -1 40 -2 47
-3 27 -2 16 22 -14 31 -33 11 -33 11 -5 12 33 1 37 28 5 34 -20 4 -19 4 5 6
17 0 27 7 27 16 0 11 -11 15 -43 15 -24 0 -47 -3 -50 -7z"/>
<path d="M1657 2713 c-3 -5 -8 -29 -12 -55 -7 -44 -6 -48 14 -48 13 0 21 6 21
16 0 13 6 10 25 -10 29 -32 49 -27 35 9 -6 15 -6 27 0 30 20 12 10 45 -16 55
-30 12 -61 13 -67 3z m53 -33 c0 -5 -4 -10 -10 -10 -5 0 -10 5 -10 10 0 6 5
10 10 10 6 0 10 -4 10 -10z"/>
<path d="M1175 2690 c-6 -9 13 -88 24 -102 4 -4 12 -3 20 1 11 7 11 18 1 60
-11 48 -30 65 -45 41z"/>
<path d="M1781 2653 c-6 -21 -11 -46 -11 -56 0 -28 32 -17 40 13 21 80 21 80
1 80 -15 0 -23 -10 -30 -37z"/>
<path d="M1083 2670 c-22 -9 -43 -39 -43 -60 0 -6 11 -21 23 -34 27 -27 65
-25 92 4 21 24 4 63 -23 53 -32 -12 -35 -16 -17 -30 18 -12 18 -13 -2 -13 -21
0 -38 24 -27 41 3 5 15 9 28 9 29 0 39 10 25 27 -13 15 -25 16 -56 3z"/>
<path d="M1848 2621 c-9 -27 -13 -52 -10 -55 12 -13 30 -5 37 17 6 21 7 20 16
-9 14 -48 36 -50 55 -6 22 52 22 76 2 80 -11 2 -18 -3 -18 -12 0 -25 -18 -19
-22 7 -2 13 -11 23 -23 25 -17 2 -24 -6 -37 -47z"/>
<path d="M969 2623 c-1 -5 0 -16 0 -26 2 -15 -1 -16 -24 -5 -43 19 -54 -3 -27
-57 24 -50 58 -63 50 -20 -5 25 5 34 17 15 8 -13 42 -13 50 -1 8 14 -37 101
-52 101 -7 0 -14 -3 -14 -7z"/>
<path d="M1991 2591 c-38 -38 -21 -88 35 -105 38 -12 74 44 38 58 -25 10 -34
7 -34 -9 0 -8 -4 -15 -10 -15 -15 0 -12 36 4 49 10 9 16 8 26 -4 16 -19 40
-20 40 -1 0 18 -19 33 -52 41 -19 5 -32 1 -47 -14z"/>
<path d="M818 2542 c-34 -21 -34 -25 -3 -78 l25 -43 35 20 c19 12 38 25 41 31
10 17 -5 22 -31 10 -28 -13 -35 1 -9 16 24 13 8 35 -16 22 -29 -15 -37 -12
-12 6 45 31 19 45 -30 16z"/>
<path d="M1345 2519 c-203 -28 -405 -126 -561 -272 -434 -406 -431 -1096 7
-1501 124 -115 271 -195 444 -242 88 -23 118 -27 255 -26 169 0 230 11 385 71
183 70 376 232 484 406 59 95 114 229 138 340 20 87 22 305 4 395 -92 473
-493 817 -970 835 -64 2 -147 0 -186 -6z m350 -44 c355 -73 664 -364 755 -713
48 -183 48 -342 1 -523 -44 -165 -139 -325 -268 -450 -308 -299 -754 -369
-1138 -179 -273 135 -468 388 -536 695 -17 78 -17 312 0 390 54 244 185 454
373 595 236 178 524 244 813 185z"/>
<path d="M1481 2374 c-12 -15 -21 -40 -21 -55 0 -24 -4 -29 -25 -29 -14 0 -39
-12 -56 -28 l-30 -27 24 -23 25 -24 -38 -34 c-21 -19 -43 -48 -50 -64 -10 -24
-15 -28 -30 -20 -28 15 -87 12 -121 -5 -34 -18 -52 -55 -43 -91 6 -24 6 -24
-75 -24 -74 0 -81 -2 -81 -20 0 -13 -7 -20 -20 -20 -20 0 -20 -7 -20 -467 0
-292 4 -482 10 -505 15 -52 68 -119 116 -145 23 -13 81 -34 130 -48 105 -30
178 -64 240 -111 32 -25 49 -32 62 -26 37 18 71 38 117 69 51 34 75 44 219 89
100 31 170 73 203 123 51 75 53 100 53 598 l0 463 -90 0 -90 0 0 38 c0 60 -34
86 -103 80 -53 -4 -54 -4 -76 34 -12 21 -39 51 -60 66 l-37 27 29 24 28 23
-22 24 c-12 12 -36 24 -53 26 -26 3 -32 8 -34 32 -4 35 -30 76 -47 76 -8 0
-23 -12 -34 -26z m49 -13 c16 -32 12 -41 -20 -41 -16 0 -30 5 -30 11 0 16 20
49 30 49 5 0 14 -9 20 -19z m18 -113 c2 -19 -3 -30 -17 -38 -28 -15 -61 3 -61
34 0 31 9 37 45 34 24 -2 31 -8 33 -30z m70 16 c28 -20 28 -28 -3 -42 -35 -16
-35 -16 -35 23 0 39 6 42 38 19z m-178 -24 c0 -23 -5 -30 -19 -30 -10 0 -25 7
-32 16 -11 14 -10 18 6 30 30 22 45 17 45 -16z m171 -115 c40 -26 67 -74 71
-126 l3 -34 -62 -3 -62 -3 -10 38 c-5 21 -11 47 -13 58 -2 14 -11 20 -27 20
-22 0 -26 -7 -39 -63 -11 -49 -17 -62 -29 -58 -8 3 -35 6 -59 6 -41 0 -44 2
-44 28 1 35 31 102 58 125 56 50 146 55 213 12z m-343 -86 c32 -11 49 -36 34
-51 -6 -6 -23 -1 -43 11 -41 25 -67 26 -97 5 -26 -18 -30 -4 -4 18 15 15 39
24 68 27 6 0 25 -4 42 -10z m573 -9 c28 -15 24 -32 -5 -19 -18 9 -30 7 -55 -5
-17 -9 -31 -21 -31 -27 0 -6 -4 -7 -10 -4 -14 8 -13 38 2 53 15 15 72 16 99 2z
m-593 -46 c34 -24 26 -34 -27 -34 -53 0 -70 12 -51 35 16 19 50 19 78 -1z
m590 4 c25 -25 13 -38 -33 -38 -50 0 -57 11 -23 34 27 19 40 20 56 4z m-318
-28 c0 -5 -2 -10 -4 -10 -3 0 -8 5 -11 10 -3 6 -1 10 4 10 6 0 11 -4 11 -10z
m-270 -156 c0 -17 -6 -24 -20 -24 -21 0 -27 15 -10 25 12 7 3 31 -27 75 -21
30 -19 29 16 -9 24 -25 41 -53 41 -67z m572 69 c-28 -41 -34 -64 -21 -79 9
-11 7 -14 -10 -14 -11 0 -21 2 -21 5 0 14 33 81 47 97 24 27 27 22 5 -9z m128
-138 c0 -20 -5 -25 -25 -25 l-25 0 2 -312 3 -313 23 -3 c16 -3 22 -10 22 -28
l0 -24 -435 0 -435 0 0 25 c0 18 5 25 20 25 20 0 20 7 20 315 0 308 0 315 -20
315 -15 0 -20 7 -20 25 l0 25 435 0 435 -1 0 -24z m-560 -792 c13 -14 12 -15
-10 -11 -14 3 -31 7 -39 9 -7 2 -15 -1 -18 -7 -2 -6 15 -18 37 -27 31 -12 40
-21 40 -39 0 -34 -18 -48 -61 -48 -42 0 -73 25 -49 40 10 6 21 3 32 -7 19 -17
52 -10 46 9 -2 6 -18 16 -36 22 -40 14 -56 31 -49 51 14 35 76 39 107 8z m168
-11 c2 -13 -2 -29 -8 -37 -9 -11 -8 -19 4 -37 21 -30 20 -38 -4 -38 -12 0 -26
12 -35 31 -18 35 -39 34 -40 -2 0 -14 -7 -25 -17 -27 -16 -3 -18 5 -18 68 l0
71 58 -3 c51 -3 57 -5 60 -26z m106 -17 c12 -43 19 -40 31 13 6 27 11 32 36
32 l29 0 0 -70 c0 -56 -3 -70 -15 -70 -11 0 -15 12 -15 52 0 58 -10 56 -25 -5
-15 -56 -41 -62 -50 -10 -11 66 -25 74 -25 16 0 -40 -4 -53 -15 -53 -12 0 -15
15 -15 71 l0 70 27 -3 c21 -2 28 -11 37 -43z"/>
<path d="M1170 1395 l0 -315 343 2 342 3 0 310 0 310 -342 3 -343 2 0 -315z
m560 65 c0 -25 -4 -30 -25 -30 -21 0 -25 5 -25 30 0 25 4 30 25 30 21 0 25 -5
25 -30z m-160 -105 l0 -45 -50 0 -50 0 0 38 c0 21 3 42 7 45 3 4 26 7 50 7
l43 0 0 -45z m-120 -115 l0 -120 -25 0 c-24 0 -25 2 -25 64 0 71 -4 76 -71 76
l-39 0 0 43 c0 24 3 47 7 50 3 4 39 7 80 7 l73 0 0 -120z m-72 -52 l-3 -53
-40 0 c-39 0 -40 1 -43 39 -5 57 2 66 48 66 l41 0 -3 -52z"/>
<path d="M1476 932 c-9 -14 12 -35 28 -29 23 9 20 37 -3 37 -11 0 -22 -4 -25
-8z"/>
<path d="M2144 2486 c-8 -14 -14 -35 -12 -48 4 -26 48 -54 71 -45 22 8 11 37
-13 37 -28 0 -32 15 -11 34 18 17 20 17 31 -3 12 -24 40 -28 40 -6 0 23 -37
55 -65 55 -15 0 -31 -9 -41 -24z"/>
<path d="M703 2459 c-9 -9 -5 -22 19 -56 18 -24 36 -42 42 -40 22 7 15 33 -16
70 -26 30 -36 36 -45 26z"/>
<path d="M2256 2409 c-15 -12 -26 -30 -26 -44 0 -23 41 -65 65 -65 19 0 55 44
55 67 0 19 -42 63 -60 63 -4 0 -19 -9 -34 -21z m57 -25 c10 -10 -12 -44 -28
-44 -15 0 -21 31 -8 43 8 9 28 9 36 1z"/>
<path d="M618 2381 l-33 -30 39 -40 c31 -32 43 -38 53 -29 10 8 11 14 3 22
-17 17 -11 24 21 22 39 -1 50 21 15 30 -16 4 -26 13 -26 24 0 15 -18 30 -36
30 -2 0 -18 -13 -36 -29z m42 -15 c0 -3 -4 -8 -10 -11 -5 -3 -10 -1 -10 4 0 6
5 11 10 11 6 0 10 -2 10 -4z"/>
<path d="M2353 2302 l-42 -37 29 -35 c23 -27 33 -31 42 -22 10 10 8 16 -5 29
-16 16 -15 19 13 49 25 24 28 33 18 42 -10 8 -24 1 -55 -26z"/>
<path d="M524 2279 c-9 -15 36 -109 53 -109 7 0 14 5 14 10 1 6 2 16 3 22 0 7
13 19 29 26 37 18 34 27 -16 46 -50 19 -73 20 -83 5z"/>
<path d="M2422 2209 l-42 -31 26 -34 c15 -19 30 -34 35 -34 16 0 18 17 5 36
-13 17 -11 22 17 45 18 15 27 30 23 37 -11 17 -18 15 -64 -19z"/>
<path d="M457 2198 c-2 -7 2 -21 10 -30 13 -15 13 -16 -6 -11 -25 7 -39 -20
-21 -42 11 -13 9 -15 -11 -13 -42 5 -35 -27 9 -40 69 -21 100 -8 68 27 -22 24
-20 29 9 23 44 -8 44 26 -1 64 -43 37 -50 40 -57 22z"/>
<path d="M2498 2120 c-20 -11 -40 -25 -43 -31 -9 -14 26 -79 42 -79 16 0 17
15 3 41 -6 11 -7 19 -1 19 5 0 11 -7 15 -15 3 -8 12 -15 21 -15 17 0 20 16 5
25 -5 3 -10 12 -10 18 0 7 9 1 19 -12 30 -39 45 -16 18 29 -12 22 -24 40 -27
39 -3 0 -22 -9 -42 -19z"/>
<path d="M371 2024 c-24 -31 -24 -52 1 -68 13 -8 22 -5 43 14 14 13 25 19 25
13 0 -6 -7 -13 -15 -17 -18 -7 -20 -36 -2 -36 20 0 35 14 46 42 12 32 -6 62
-35 56 -10 -2 -24 3 -30 10 -9 12 -14 10 -33 -14z"/>
<path d="M2527 1992 c-22 -25 -21 -44 4 -76 22 -28 35 -31 58 -17 13 8 13 14
2 38 -12 27 -13 27 -27 8 -14 -18 -14 -18 -14 3 0 12 5 23 10 24 29 4 35 1 40
-21 3 -14 11 -26 18 -29 15 -5 16 41 2 69 -14 25 -71 26 -93 1z"/>
<path d="M317 1903 c-16 -16 -4 -42 32 -71 50 -40 65 -41 58 -3 -4 21 -1 34
13 46 11 10 20 22 20 27 0 9 -114 11 -123 1z"/>
<path d="M2592 1873 c-37 -13 -42 -18 -36 -36 17 -54 25 -68 37 -64 13 5 13
11 2 40 -4 9 -3 17 3 17 5 0 12 -9 15 -20 8 -30 30 -25 25 5 -6 30 7 34 15 5
6 -22 27 -27 27 -6 0 26 -22 76 -33 75 -7 0 -31 -7 -55 -16z"/>
<path d="M276 1769 c-10 -53 -8 -57 45 -68 29 -6 53 -10 54 -9 1 2 7 22 12 45
8 33 8 43 -3 47 -9 3 -16 -4 -20 -19 -3 -14 -10 -25 -15 -25 -5 0 -7 11 -3 25
5 19 2 25 -10 25 -9 0 -16 -8 -16 -20 0 -11 -4 -20 -9 -20 -4 0 -6 11 -3 25 3
18 0 25 -11 25 -8 0 -17 -13 -21 -31z"/>
<path d="M640 665 l-33 -34 27 -36 c26 -34 46 -39 46 -11 0 8 -7 19 -15 26 -9
7 -13 15 -10 18 3 3 14 -3 25 -13 25 -23 39 -11 21 18 -14 22 -14 22 8 3 13
-12 25 -16 31 -10 11 11 -35 74 -54 74 -7 0 -27 -16 -46 -35z"/>
<path d="M2204 615 c-6 -16 42 -85 60 -85 21 0 70 46 62 59 -6 9 -13 8 -31 -3
-23 -15 -25 -14 -45 14 -23 33 -38 38 -46 15z"/>
<path d="M719 584 l-34 -35 33 -30 c39 -35 42 -35 76 -8 32 25 33 59 3 87 -31
29 -37 28 -78 -14z m61 -24 c0 -20 -25 -38 -37 -26 -5 5 24 46 34 46 1 0 3 -9
3 -20z"/>
<path d="M2140 574 c-19 -13 -35 -28 -35 -32 0 -12 50 -82 59 -82 13 0 76 40
76 49 0 18 -15 20 -38 5 -31 -20 -43 -9 -13 12 16 12 20 19 12 27 -8 8 -14 8
-23 -1 -7 -7 -17 -12 -22 -12 -6 0 0 9 14 20 40 30 12 43 -30 14z"/>
<path d="M821 521 c-26 -36 -27 -63 -3 -84 29 -27 58 -20 88 19 24 31 26 37
12 50 -14 14 -18 12 -38 -21 -16 -26 -26 -33 -33 -26 -8 8 -6 20 6 41 31 51 2
69 -32 21z"/>
<path d="M2037 510 c-31 -24 -34 -46 -11 -78 18 -26 65 -30 88 -6 22 22 20 44
-4 44 -11 0 -20 -7 -20 -15 0 -20 -26 -19 -34 1 -10 26 -7 32 17 36 25 3 30
31 6 36 -8 1 -27 -7 -42 -18z"/>
<path d="M1953 462 c-3 -14 -12 -17 -34 -14 -33 5 -39 -12 -9 -28 14 -8 20
-21 20 -45 0 -39 13 -45 32 -15 8 13 19 18 34 14 32 -8 39 14 11 36 -18 14
-23 26 -20 45 4 19 1 25 -12 25 -9 0 -19 -8 -22 -18z"/>
<path d="M924 445 c-22 -34 -12 -69 26 -85 24 -10 33 -10 45 0 19 16 10 30
-21 30 -25 0 -28 7 -18 34 8 20 30 21 38 1 7 -19 36 -20 36 -2 0 22 -34 47
-63 47 -17 0 -32 -9 -43 -25z"/>
<path d="M1817 418 c-17 -6 -26 -15 -23 -23 2 -7 10 -32 17 -54 9 -32 16 -40
28 -36 9 4 28 9 44 12 39 8 36 37 -3 31 -33 -5 -41 7 -10 15 30 8 25 30 -5 25
-14 -3 -25 -2 -25 2 0 4 11 11 25 14 14 4 25 11 25 16 0 13 -36 12 -73 -2z"/>
<path d="M1042 380 c-35 -42 -35 -65 0 -54 13 4 26 -1 39 -15 32 -34 40 -26
37 42 -3 53 -6 62 -23 65 -13 1 -31 -12 -53 -38z"/>
<path d="M1143 387 c-3 -5 1 -16 11 -22 13 -10 15 -18 6 -40 -6 -16 -9 -34 -6
-42 10 -24 33 -13 42 20 6 21 17 33 30 35 18 3 21 -2 20 -40 l-1 -43 43 0 c45
0 59 18 17 23 -14 2 -25 8 -25 14 0 6 10 8 25 4 18 -5 25 -2 25 9 0 8 -9 15
-20 15 -11 0 -20 5 -20 10 0 6 11 8 25 4 19 -5 25 -2 25 9 0 11 -14 18 -47 22
-27 4 -69 12 -96 20 -32 9 -49 10 -54 2z"/>
<path d="M1653 372 c-8 -5 -8 -21 -1 -60 11 -53 11 -53 42 -46 61 13 81 57 44
101 -11 14 -66 17 -85 5z m61 -38 c7 -18 0 -34 -15 -34 -5 0 -9 11 -9 25 0 28
15 34 24 9z"/>
<path d="M1597 363 c-4 -3 -7 -15 -7 -26 0 -20 -1 -20 -24 3 -38 34 -55 21
-49 -37 3 -26 9 -52 13 -57 13 -13 30 3 30 27 l1 22 18 -22 c30 -36 51 -30 51
15 0 64 -14 95 -33 75z"/>
<path d="M1406 303 c-9 -26 -16 -50 -16 -55 0 -13 38 -9 43 5 3 10 9 10 26 0
44 -27 51 -14 25 54 -13 33 -22 43 -39 43 -19 0 -26 -9 -39 -47z"/>
</g>
</svg>
